<svg
    xmlns="http://www.w3.org/2000/svg" 
    xmlns:xlink="http://www.w3.org/1999/xlink" 
    width="50" 
    zoomAndPan="magnify" 
    viewBox="0 0 375 374.999991" 
    height="50" 
    preserveAspectRatio="xMidYMid meet" 
    version="1.0"
>
    <defs>
        <clipPath id="35a9f765c5">
            <path d="M 0 52.277344 L 375 52.277344 L 375 323 L 0 323 Z M 0 52.277344 " clip-rule="nonzero"/>
        </clipPath>
    </defs>
    <path 
        fill="#ffffff" 
        d="M 365.976562 246.6875 C 346.953125 232.328125 329.277344 218.929688 312.832031 206.453125 C 292.550781 191.074219 274.160156 177.132812 257.441406 164.574219 C 226.890625 172.230469 190.773438 185.132812 150.476562 199.535156 C 107.105469 215.035156 58.929688 232.246094 7.011719 246.6875 L 7.011719 246.679688 C 5.714844 247.039062 4.277344 246.929688 2.976562 246.253906 C 0.273438 244.84375 -0.773438 241.5 0.632812 238.792969 C 20.058594 201.496094 33.507812 169.488281 44.402344 143.566406 C 66.203125 91.6875 78.214844 63.113281 108.183594 63.183594 C 136.179688 63.253906 178.199219 91.304688 259.90625 152.570312 C 278.675781 148.148438 295.476562 145.75 310.074219 146.253906 C 353.453125 147.734375 377.203125 173.164062 374.839844 242.429688 C 374.738281 245.480469 372.191406 247.886719 369.136719 247.785156 C 367.949219 247.746094 366.863281 247.34375 365.976562 246.667969 L 365.964844 246.679688 Z M 319.5 197.597656 C 333.402344 208.144531 348.191406 219.355469 363.925781 231.238281 C 363.371094 178.28125 343.804688 158.480469 309.730469 157.324219 C 298.523438 156.941406 285.75 158.429688 271.574219 161.339844 C 286.292969 172.429688 302.226562 184.507812 319.511719 197.609375 Z M 246.113281 156.085938 C 171.167969 100.054688 132.246094 74.3125 108.195312 74.253906 C 85.558594 74.191406 74.5625 100.359375 54.605469 147.867188 C 44.757812 171.300781 32.824219 199.695312 16.265625 232.558594 C 62.875 219.050781 106.855469 203.339844 146.753906 189.078125 C 183.570312 175.925781 216.941406 164 246.113281 156.085938 Z M 246.113281 156.085938 " 
        fill-opacity="1" 
        fill-rule="nonzero"
        stroke="white"
        stroke-width="5"
    />
    <g clip-path="url(#35a9f765c5)">
        <path 
            fill="#ffffff" 
            d="M 200.03125 311.359375 L 361.660156 239.597656 C 349.769531 216.898438 339.691406 197.125 330.675781 179.441406 C 290.347656 100.308594 271.605469 63.527344 245.921875 63.464844 C 222.714844 63.40625 190.554688 91.304688 130.445312 143.433594 C 100.207031 169.660156 63.035156 201.898438 16.4375 239.667969 L 200.019531 311.359375 Z M 371.550781 247.34375 L 202.402344 322.4375 C 201.105469 323.011719 199.585938 323.082031 198.160156 322.527344 L 3.53125 246.527344 C 2.65625 246.183594 1.859375 245.621094 1.238281 244.835938 C -0.675781 242.449219 -0.300781 238.964844 2.082031 237.050781 C 52.128906 196.722656 91.503906 162.570312 123.222656 135.066406 C 185.363281 81.171875 218.609375 52.335938 245.941406 52.398438 C 278.4375 52.476562 298.164062 91.171875 340.574219 174.40625 C 350.515625 193.914062 361.722656 215.890625 374.113281 239.46875 C 374.214844 239.648438 374.316406 239.839844 374.40625 240.03125 C 375.644531 242.832031 374.367188 246.105469 371.570312 247.34375 Z M 371.550781 247.34375 " 
            fill-opacity="1"
            fill-rule="nonzero"
            stroke="white"
            stroke-width="5"

        />
    </g>
</svg>