<svg xmlns="http://www.w3.org/2000/svg" xmlns:xlink="http://www.w3.org/1999/xlink" width="500" zoomAndPan="magnify" viewBox="0 0 375 374.999991" height="500" preserveAspectRatio="xMidYMid meet" version="1.0"><defs><clipPath id="47129dca02"><path d="M 63.5 142 L 311.75 142 L 311.75 236 L 63.5 236 Z M 63.5 142 " clip-rule="nonzero"/></clipPath></defs><g clip-path="url(#47129dca02)"><path fill="#ffffff" d="M 311.601562 231.632812 C 311.148438 231.496094 296.59375 227.050781 288.964844 219.144531 C 281.214844 211.113281 278.53125 214.382812 271.679688 215.277344 C 264.824219 216.171875 262.144531 227.773438 257.972656 228.664062 C 253.800781 229.554688 252.011719 227.773438 248.136719 231.636719 C 244.261719 235.507812 240.984375 233.425781 248.734375 224.5 C 256.480469 215.574219 262.738281 213.789062 259.460938 210.816406 C 256.183594 207.839844 254.695312 202.1875 248.136719 199.214844 C 241.578125 196.238281 242.175781 192.394531 239.492188 187.921875 C 236.8125 183.449219 238.003906 173.632812 232.042969 179.582031 C 226.085938 185.53125 197.769531 211.410156 197.769531 211.410156 C 198.367188 216.46875 193 203.082031 187.636719 201.296875 C 182.273438 199.511719 179.890625 201 172.140625 207.542969 C 164.394531 214.089844 154.855469 213.789062 156.046875 220.632812 C 157.238281 227.472656 144.722656 227.023438 139.65625 233.496094 C 134.589844 239.96875 138.167969 231.042969 142.042969 225.09375 C 145.914062 219.144531 142.636719 217.65625 139.65625 219.441406 C 136.675781 221.226562 129.226562 221.226562 147.109375 213.789062 C 164.988281 206.351562 159.625 203.972656 164.09375 199.511719 C 168.566406 195.050781 181.082031 195.542969 177.804688 189.050781 C 174.523438 182.554688 176.613281 178.390625 174.226562 177.496094 C 171.84375 176.605469 178.101562 175.117188 171.84375 176.605469 C 165.585938 178.09375 165.585938 178.09375 165.585938 178.09375 C 165.585938 178.09375 150.980469 186.125 157.238281 180.175781 C 163.5 174.226562 171.84375 171.25 170.949219 165.894531 C 170.054688 160.539062 171.246094 148.941406 162.304688 153.699219 C 153.367188 158.460938 125.351562 190.585938 119.691406 193.859375 C 119.683594 193.859375 119.679688 193.867188 119.671875 193.871094 C 118.660156 194.453125 118.164062 195.644531 118.492188 196.769531 C 118.609375 197.191406 118.765625 197.632812 118.957031 198.09375 C 120.148438 200.9375 119.917969 204.210938 119.535156 206.375 C 120.367188 208 120.871094 209.351562 120.585938 209.921875 C 119.691406 211.707031 125.054688 219.441406 115.515625 209.03125 C 115.378906 208.875 115.253906 208.734375 115.117188 208.589844 C 114.75 208.515625 114.351562 208.335938 113.9375 208.007812 C 111.566406 206.132812 109.621094 207.214844 106.242188 205.429688 C 105.257812 204.914062 104.03125 204.695312 102.773438 204.644531 C 101.902344 204.617188 101.050781 204.890625 100.347656 205.40625 C 90.386719 212.773438 70.003906 229.105469 63.664062 231.636719 C 63.664062 231.636719 91.675781 199.511719 108.363281 192.074219 C 125.054688 184.636719 163.199219 134.960938 176.613281 143.289062 C 190.023438 151.617188 212.671875 182.851562 218.035156 180.769531 C 223.402344 178.6875 231.746094 161.433594 244.261719 171.25 C 256.777344 181.066406 262.441406 192.371094 276.148438 198.023438 C 289.667969 203.597656 311.003906 230.859375 311.601562 231.632812 " fill-opacity="1" fill-rule="nonzero"/></g></svg>