<svg xmlns="http://www.w3.org/2000/svg" xmlns:xlink="http://www.w3.org/1999/xlink" width="100" zoomAndPan="magnify" viewBox="0 0 375 374.999991" height="100" preserveAspectRatio="xMidYMid meet" version="1.0"><defs><clipPath id="1a094e40e4"><path d="M 12.730469 146 L 362.230469 146 L 362.230469 234.1875 L 12.730469 234.1875 Z M 12.730469 146 " clip-rule="nonzero"/></clipPath></defs><g clip-path="url(#1a094e40e4)"><path fill="#ffffff" d="M 12.882812 234.1875 C 12.882812 234.1875 48.144531 213.003906 62.265625 204.257812 C 76.433594 195.515625 78.164062 193.90625 79.898438 197.167969 C 81.632812 200.386719 82.628906 201.910156 82.628906 201.910156 C 82.628906 201.910156 108.574219 182.207031 114.683594 173.113281 C 120.746094 163.980469 124.734375 164.109375 131.535156 170.242188 C 138.378906 176.332031 153.28125 185.683594 155.878906 186.292969 C 158.480469 186.945312 194 155.019531 197.59375 151.148438 C 201.191406 147.277344 204.785156 141.1875 213.710938 153.757812 C 222.675781 166.371094 255.554688 202.78125 255.554688 202.78125 C 255.554688 202.78125 267.597656 188.425781 269.9375 185.074219 C 272.320312 181.683594 272.449219 183.683594 275.527344 189.425781 C 278.644531 195.167969 289.820312 210.742188 289.820312 210.742188 C 289.820312 210.742188 312.261719 192.035156 315.25 193.035156 C 318.238281 194.035156 362.078125 229.574219 362.078125 229.574219 C 362.078125 229.574219 320.230469 202.996094 319.496094 204.519531 C 318.714844 206 319.710938 216.351562 317.847656 216.480469 C 315.984375 216.613281 302.46875 216.742188 302.46875 216.742188 L 302.46875 232.664062 L 284.234375 232.664062 C 284.234375 232.664062 257.417969 218.089844 243.253906 206.390625 C 229.132812 194.644531 205.523438 155.28125 205.523438 155.28125 L 208.511719 213.609375 L 173.988281 193.429688 L 183.691406 220.09375 C 183.691406 220.09375 155.273438 198.257812 143.964844 189.035156 C 132.660156 179.8125 124.472656 174.332031 123 176.070312 C 121.484375 177.855469 112.820312 187.6875 108.230469 191.035156 C 103.636719 194.429688 74.699219 216.480469 74.699219 216.480469 L 76.042969 202.128906 C 76.042969 202.128906 56.808594 214.785156 47.191406 218.351562 C 37.574219 221.875 12.882812 234.1875 12.882812 234.1875 Z M 12.882812 234.1875 " fill-opacity="1" fill-rule="evenodd"/></g></svg>